<svg width="260" height="260" viewBox="0 0 260 260" fill="none" xmlns="http://www.w3.org/2000/svg">
<rect width="260" height="260" rx="20" fill="#4CB963"/>
<path d="M172.045 108C170.483 103.218 168.423 98.9328 165.866 95.1449C163.357 91.3097 160.35 88.0426 156.847 85.3438C153.39 82.6449 149.46 80.5852 145.057 79.1648C140.653 77.7443 135.824 77.0341 130.568 77.0341C121.951 77.0341 114.115 79.2595 107.06 83.7102C100.005 88.161 94.3939 94.7188 90.2273 103.384C86.0606 112.048 83.9773 122.678 83.9773 135.273C83.9773 147.867 86.0843 158.497 90.2983 167.162C94.5123 175.827 100.218 182.384 107.415 186.835C114.612 191.286 122.708 193.511 131.705 193.511C140.038 193.511 147.377 191.736 153.722 188.185C160.114 184.586 165.085 179.52 168.636 172.986C172.235 166.404 174.034 158.663 174.034 149.761L179.432 150.898H135.682V135.273H191.08V150.898C191.08 162.877 188.523 173.294 183.409 182.148C178.343 191.002 171.335 197.867 162.386 202.744C153.485 207.574 143.258 209.989 131.705 209.989C118.826 209.989 107.509 206.958 97.7557 200.898C88.0492 194.837 80.4735 186.22 75.0284 175.045C69.6307 163.871 66.9318 150.614 66.9318 135.273C66.9318 123.767 68.4706 113.421 71.5483 104.236C74.6733 95.0028 79.0767 87.143 84.7585 80.6562C90.4403 74.1695 97.1638 69.1979 104.929 65.7415C112.694 62.285 121.241 60.5568 130.568 60.5568C138.239 60.5568 145.388 61.7169 152.017 64.0369C158.693 66.3097 164.635 69.553 169.844 73.767C175.099 77.9337 179.479 82.929 182.983 88.7528C186.487 94.5294 188.902 100.945 190.227 108H172.045Z" fill="white"/>
<path d="M138.227 62.5455V208H120.614V62.5455H138.227Z" fill="white"/>
</svg>
