<?xml version="1.0" standalone="no"?>
<!DOCTYPE svg PUBLIC "-//W3C//DTD SVG 20010904//EN"
 "http://www.w3.org/TR/2001/REC-SVG-20010904/DTD/svg10.dtd">
<svg version="1.0" xmlns="http://www.w3.org/2000/svg"
 width="260.000000pt" height="260.000000pt" viewBox="0 0 260.000000 260.000000"
 preserveAspectRatio="xMidYMid meet">
<metadata>
Created by potrace 1.14, written by Peter Selinger 2001-2017
</metadata>
<g transform="translate(0.000000,260.000000) scale(0.100000,-0.100000)"
fill="#000000" stroke="none">
<path d="M113 2575 c-32 -16 -61 -41 -79 -67 l-29 -41 -3 -1151 -2 -1150 25
-52 c16 -33 40 -62 67 -80 l41 -29 1151 -3 1150 -2 52 25 c33 16 62 40 80 67
l29 41 3 1151 2 1150 -25 52 c-16 33 -40 62 -67 80 l-41 29 -1151 3 -1151 2
-52 -25z m1342 -597 c137 -29 292 -135 366 -249 32 -50 79 -166 79 -194 0 -12
-18 -15 -89 -15 l-89 0 -31 65 c-54 117 -167 212 -273 231 l-38 6 0 -286 0
-286 266 0 266 0 -4 -152 c-4 -132 -9 -162 -30 -220 -56 -150 -143 -249 -273
-314 -100 -49 -196 -67 -325 -61 -242 12 -423 129 -524 339 -69 144 -81 204
-80 403 0 199 12 261 78 400 71 150 194 264 340 315 102 36 243 43 361 18z"/>
<path d="M1149 1801 c-206 -79 -322 -306 -305 -601 7 -126 26 -202 73 -293 55
-104 168 -199 266 -222 l27 -7 0 565 c0 311 -3 568 -7 570 -5 3 -29 -3 -54
-12z"/>
<path d="M1380 879 l0 -211 38 7 c152 28 281 163 312 325 19 98 34 90 -170 90
l-180 0 0 -211z"/>
</g>
</svg>
